<svg xmlns="http://www.w3.org/2000/svg" width="24" height="24" viewBox="0 0 24 24">
    <g fill="none" fill-rule="evenodd">
        <g fill-rule="nonzero">
            <path fill="#12100E" d="M0 0h24v24H0z"/>
            <path fill="#FFF" d="M5.707 8.071a.622.622 0 0 0-.203-.525L4 5.738v-.27h4.668l3.609 7.9 3.172-7.9h4.45v.27l-1.286 1.23a.375.375 0 0 0-.142.36v9.04a.375.375 0 0 0 .142.36l1.256 1.23v.27h-6.315v-.27l1.3-1.26c.129-.128.129-.165.129-.36V9.03l-3.616 9.167h-.489L6.668 9.03v6.144a.847.847 0 0 0 .234.705l1.691 2.048v.27H3.797v-.27L5.49 15.88a.817.817 0 0 0 .218-.705V8.07z"/>
        </g>
    </g>
</svg>
