<svg xmlns="http://www.w3.org/2000/svg" width="24" height="24" viewBox="0 0 24 24">
    <path fill="#000" fill-rule="nonzero" d="M22.955 14.26v7.719h-4.706v-7.203c0-1.809-.68-3.044-2.384-3.044-1.3 0-2.074.832-2.414 1.637-.124.288-.156.689-.156 1.092v7.518H8.588s.063-12.199 0-13.462h4.706v1.908l-.03.043h.03v-.043c.626-.916 1.743-2.225 4.242-2.225 3.097 0 5.419 1.924 5.419 6.06zM3.664 2.026C2.054 2.027 1 3.032 1 4.353 1 5.645 2.023 6.68 3.601 6.68h.032c1.641 0 2.662-1.035 2.662-2.327-.03-1.321-1.02-2.326-2.631-2.326zM1.28 21.98h4.705V8.517H1.28v13.462z"/>
</svg>
