<svg xmlns="http://www.w3.org/2000/svg" width="24" height="24" viewBox="0 0 24 24">
    <path fill="#000" fill-rule="nonzero" d="M11.977 1C5.914 1 1 5.915 1 11.978c0 6.062 4.914 10.977 10.977 10.977 6.063 0 10.977-4.915 10.978-10.977C22.955 5.915 18.04 1 11.977 1zm6.726 5.692a8.502 8.502 0 0 1 1.826 4.883 16.912 16.912 0 0 0-3.501-.391h-.008c-.88 0-1.704.08-2.481.217-.19-.463-.38-.907-.574-1.333 1.731-.76 3.393-1.84 4.738-3.376zm-6.726-3.279c2.02 0 3.873.707 5.34 1.882-1.122 1.345-2.604 2.318-4.205 3.005-1.125-2.175-2.212-3.73-2.955-4.682a8.382 8.382 0 0 1 1.82-.205zm-3.783.893c.595.702 1.785 2.247 3.056 4.658-2.585.77-5.189.95-6.764.95h-.134c-.265 0-.494-.005-.684-.01a8.592 8.592 0 0 1 4.526-5.598zm-4.781 7.672l.003-.123c.245.009.559.016.936.016h.002c1.722-.01 4.728-.155 7.774-1.116.166.363.33.74.493 1.133a13.553 13.553 0 0 0-4.822 2.844 14.609 14.609 0 0 0-2.362 2.755 8.51 8.51 0 0 1-2.024-5.51zm8.564 8.565a8.505 8.505 0 0 1-5.088-1.688c.303-.5.953-1.457 1.987-2.446 1.064-1.02 2.533-2.07 4.45-2.694a42.247 42.247 0 0 1 1.691 6.267c-.946.36-1.969.56-3.04.56zm4.847-1.521a44.043 44.043 0 0 0-1.58-5.755c.556-.08 1.14-.125 1.756-.125h.025c1.022 0 2.144.127 3.361.404a8.561 8.561 0 0 1-3.562 5.476z"/>
</svg>
