<svg xmlns="http://www.w3.org/2000/svg" width="24" height="24" viewBox="0 0 24 24">
    <g fill="#000" fill-rule="nonzero">
        <path d="M16.125 1h-8.25A6.876 6.876 0 0 0 1 7.875v8.25A6.876 6.876 0 0 0 7.875 23h8.25A6.876 6.876 0 0 0 23 16.125v-8.25A6.876 6.876 0 0 0 16.125 1zm4.813 15.125a4.818 4.818 0 0 1-4.813 4.813h-8.25a4.818 4.818 0 0 1-4.813-4.813v-8.25a4.818 4.818 0 0 1 4.813-4.813h8.25a4.818 4.818 0 0 1 4.813 4.813v8.25z"/>
        <path d="M12 6.5a5.5 5.5 0 1 0 0 11 5.5 5.5 0 0 0 0-11zm0 8.938A3.442 3.442 0 0 1 8.562 12 3.441 3.441 0 0 1 12 8.562 3.441 3.441 0 0 1 15.438 12 3.442 3.442 0 0 1 12 15.438z"/>
    </g>
</svg>
