<svg xmlns="http://www.w3.org/2000/svg" width="216" height="24" viewBox="0 0 216 24">
    <path fill="#000" fill-rule="evenodd" d="M7.472 2.16c4.968 0 7.68 2.856 7.68 7.92S12.44 18 7.472 18H.752V2.16h6.72zm-.408 12.72c2.688 0 3.864-1.632 3.864-4.8s-1.176-4.8-3.864-4.8H4.88v9.6h2.184zM19.688 4.608c-1.656 0-2.376-.6-2.376-1.944 0-1.368.72-1.968 2.376-1.968s2.376.6 2.376 1.968c0 1.344-.72 1.944-2.376 1.944zM21.728 6v12h-4.08V6h4.08zm14.592 5.832c0 .408-.048 1.032-.12 1.344h-8.184c.264 1.56 1.152 2.184 2.52 2.184 1.2 0 1.944-.48 2.208-1.32l3.312 1.056c-.696 2.088-2.736 3.144-5.52 3.144-4.2 0-6.48-2.28-6.48-6.24 0-3.96 2.256-6.24 6.264-6.24 3.912 0 6 2.28 6 6.072zm-6.024-3.216c-1.296 0-2.064.744-2.304 2.352h4.512c-.192-1.536-.936-2.352-2.208-2.352zm15.912 6.72c2.76 0 4.368 1.2 4.368 3.6 0 2.784-2.688 4.224-6.744 4.224-4.344 0-6.144-1.104-6.144-2.832 0-.984.648-1.872 2.232-2.256-1.056-.456-1.848-1.248-1.848-2.496 0-1.152.792-2.04 1.968-2.448-1.296-.696-1.968-1.8-1.968-3.288 0-2.592 2.136-4.08 5.856-4.08.888 0 1.704.096 2.4.264.312-1.872 1.44-3.432 3.792-3.24l.456 2.712c-1.512-.216-2.448.288-2.808 1.032 1.32.696 2.016 1.824 2.016 3.312 0 2.592-2.136 4.056-5.856 4.056-.864 0-1.632-.072-2.304-.216-.528.144-.744.408-.744.84 0 .528.432.816 1.248.816h4.08zm-2.28-7.248c-1.056 0-1.776.696-1.776 1.752s.72 1.728 1.776 1.728 1.776-.672 1.776-1.728-.72-1.752-1.776-1.752zm.192 12.432c2.208 0 3.24-.504 3.24-1.176 0-.48-.36-.768-1.464-.768h-3.288c-1.32 0-1.824.264-1.824.84 0 .696 1.008 1.104 3.336 1.104zM57.944 5.76c4.008 0 6.336 2.304 6.336 6.24 0 3.936-2.328 6.24-6.336 6.24-4.008 0-6.336-2.304-6.336-6.24 0-3.936 2.328-6.24 6.336-6.24zm0 2.904c-1.512 0-2.256.984-2.256 3.336s.744 3.336 2.256 3.336c1.512 0 2.256-.984 2.256-3.336s-.744-3.336-2.256-3.336zM77.792 18l-4.32-6.576H69.68V18h-1.92V2.16h6c3.216 0 5.352 1.776 5.352 4.632 0 2.256-1.344 3.84-3.504 4.416L80.072 18h-2.28zM69.68 3.96v5.664h4.056c2.256 0 3.36-.936 3.36-2.832s-1.104-2.832-3.36-2.832H69.68zm18.336 1.8c3.624 0 5.808 2.352 5.808 6.24 0 3.888-2.184 6.24-5.808 6.24-3.624 0-5.808-2.352-5.808-6.24 0-3.888 2.184-6.24 5.808-6.24zm0 1.656c-2.424 0-3.888 1.728-3.888 4.584s1.464 4.584 3.888 4.584 3.888-1.728 3.888-4.584-1.464-4.584-3.888-4.584zM106.28.48h1.92V18h-1.68l-.12-2.088c-.696 1.368-2.208 2.328-4.104 2.328-3.336 0-5.472-2.328-5.472-6.24 0-3.912 2.136-6.24 5.472-6.24 1.8 0 3.24.864 3.984 2.112V.48zm-3.768 16.08c2.28 0 3.768-1.704 3.768-4.416v-.288c0-2.712-1.488-4.416-3.768-4.416-2.352 0-3.768 1.776-3.768 4.56s1.416 4.56 3.768 4.56zm15.816-10.8c.408 0 .96.048 1.32.24l-.384 1.872c-.36-.192-.888-.312-1.512-.312-1.44 0-3.168 1.272-3.168 3.96V18h-1.92V6h1.56l.264 1.968c.672-1.464 1.968-2.208 3.84-2.208zm5.088-2.064c-.864 0-1.44-.576-1.44-1.44s.576-1.44 1.44-1.44 1.44.576 1.44 1.44-.576 1.44-1.44 1.44zm.96 2.304v12h-1.92V6h1.92zm11.16 10.464c2.28 0 3.624 1.128 3.624 2.856 0 2.376-2.688 3.84-5.928 3.84-3.792 0-5.52-1.368-5.52-3.168 0-1.104.792-1.968 2.112-2.328-.912-.432-1.632-1.152-1.632-2.208 0-1.248.744-1.992 1.8-2.352-1.152-.72-1.752-1.896-1.752-3.288 0-2.376 2.04-4.056 4.92-4.056.912 0 1.728.168 2.448.48.456-1.656 1.584-2.448 3.384-2.448l.432 1.68c-1.608 0-2.52.456-2.856 1.32a3.685 3.685 0 0 1 1.512 3.024c0 2.376-2.04 4.056-4.92 4.056-.696 0-1.32-.072-1.848-.216-.96.216-1.344.696-1.344 1.512 0 .84.648 1.296 1.584 1.296h3.984zM133.16 7.32c-1.656 0-2.928 1.008-2.928 2.496s1.272 2.496 2.928 2.496 2.928-1.008 2.928-2.496-1.272-2.496-2.928-2.496zm.288 14.232c2.544 0 3.936-.96 3.936-2.016 0-.864-.576-1.416-2.376-1.416h-3.216c-1.512 0-2.304.576-2.304 1.488 0 1.176 1.32 1.944 3.96 1.944zM150.488 6h1.92v12h-1.68l-.12-1.824c-.84 1.44-2.376 2.064-4.296 2.064-2.376 0-4.416-1.224-4.416-4.392V6h1.92v7.344c0 2.472 1.104 3.216 2.832 3.216 2.04 0 3.84-1.2 3.84-4.032V6zm16.68 5.376c0 .552-.048 1.008-.096 1.344h-9.048c.24 2.424 1.704 3.84 3.912 3.84 1.752 0 2.952-.624 3.384-1.776l1.608.84c-.912 1.632-2.4 2.616-4.992 2.616-3.624 0-5.808-2.352-5.808-6.24 0-3.888 2.04-6.24 5.664-6.24 3.48 0 5.376 2.52 5.376 5.616zm-5.376-3.936c-2.136 0-3.456 1.32-3.744 3.576h7.272c-.264-2.208-1.488-3.576-3.528-3.576zm13.104 10.8c-2.208 0-4.248-.864-5.16-2.712l1.56-1.08c.576 1.464 2.064 2.112 3.792 2.112 1.968 0 2.904-.792 2.904-1.776 0-.888-.744-1.416-3.144-1.848-3.408-.624-4.656-1.56-4.656-3.576 0-1.944 1.8-3.6 4.728-3.6 2.568 0 4.08.912 4.752 2.88l-1.632.96c-.528-1.584-1.608-2.16-3.12-2.16-1.608 0-2.808.864-2.808 1.752 0 1.032.792 1.56 3.24 1.968 3.36.552 4.56 1.56 4.56 3.528 0 2.088-1.944 3.552-5.016 3.552zm9.816-4.368c1.488 0 2.4.816 2.4 2.184 0 1.344-.912 2.16-2.4 2.16s-2.4-.816-2.4-2.16c0-1.368.912-2.184 2.4-2.184zm10.296-8.112c3.888 0 5.4 1.776 5.784 3.72L197 10.728c-.168-1.392-.768-2.064-1.848-2.064-1.536 0-2.376 1.032-2.376 3.384 0 2.376.936 3.288 2.376 3.288 1.152 0 1.8-.696 1.992-1.944l3.672 1.176c-.336 2.088-2.28 3.672-5.64 3.672-4.2 0-6.48-2.304-6.48-6.24 0-3.936 2.328-6.24 6.312-6.24zm13.728 0c4.008 0 6.336 2.304 6.336 6.24 0 3.936-2.328 6.24-6.336 6.24-4.008 0-6.336-2.304-6.336-6.24 0-3.936 2.328-6.24 6.336-6.24zm0 2.904c-1.512 0-2.256.984-2.256 3.336s.744 3.336 2.256 3.336c1.512 0 2.256-.984 2.256-3.336s-.744-3.336-2.256-3.336z"/>
</svg>
